<?xml version="1.0" encoding="UTF-8" standalone="no"?>
<svg
   width="900px"
   height="900px"
   viewBox="0 0 900 900"
   version="1.1"
   xml:space="preserve"
   id="SVGRoot"
   inkscape:version="1.3.2 (091e20ef0f, 2023-11-25, custom)"
   sodipodi:docname="G.svg"
   inkscape:export-filename="G.png"
   inkscape:export-xdpi="300"
   inkscape:export-ydpi="300"
   xmlns:inkscape="http://www.inkscape.org/namespaces/inkscape"
   xmlns:sodipodi="http://sodipodi.sourceforge.net/DTD/sodipodi-0.dtd"
   xmlns="http://www.w3.org/2000/svg"
   xmlns:svg="http://www.w3.org/2000/svg"><defs
   id="defs10" />
  <sodipodi:namedview
   pagecolor="#a9a9a9"
   bordercolor="#292929"
   borderopacity="1"
   inkscape:showpageshadow="2"
   inkscape:pageopacity="0.0"
   inkscape:pagecheckerboard="0"
   inkscape:deskcolor="#232323"
   id="namedview1"
   showgrid="false"
   inkscape:zoom="0.7071068"
   inkscape:cx="190.21172"
   inkscape:cy="502.0458"
   inkscape:window-width="1886"
   inkscape:window-height="997"
   inkscape:window-x="0"
   inkscape:window-y="0"
   inkscape:window-maximized="0"
   inkscape:current-layer="SVGRoot"
   inkscape:export-bgcolor="#ffffff00"><inkscape:grid
     id="grid17"
     units="px"
     originx="0"
     originy="0"
     spacingx="1"
     spacingy="1"
     empcolor="#0099e5"
     empopacity="0.30196078"
     color="#0099e5"
     opacity="0.14902"
     empspacing="5"
     dotted="false"
     gridanglex="30"
     gridanglez="30"
     visible="false" /></sodipodi:namedview>
 <style
   type="text/css"
   id="style1">
g.prefab path {
  vector-effect:non-scaling-stroke;
  -inkscape-stroke:hairline;
  fill: none;
  fill-opacity: 1;
  stroke-opacity: 1;
  stroke: #00349c;
}
 </style>
 
<g
   id="g181"
   style="fill:#e0e1e3;fill-opacity:1;stroke:#e0e1e3;stroke-opacity:1"
   transform="matrix(3.3012967,0,0,3.3012967,-978.27698,-994.41105)"><g
     id="g180"
     style="fill:#e0e1e3;fill-opacity:1;stroke:#e0e1e3;stroke-opacity:1"><path
       d="m 509.8793,394.57995 19.70321,9.48206 1.50112,-0.56445 z"
       style="vector-effect:non-scaling-stroke;fill:#e0e1e3;fill-opacity:1;stroke:#e0e1e3;stroke-width:0.93248;stroke-opacity:1;-inkscape-stroke:hairline"
       id="path147"
       sodipodi:nodetypes="cccc" /><path
       d="m 511.34687,395.20844 v 18.40429 l 1.77149,-0.81054 17.99804,-8.40235 -18.0824,-8.49658 z"
       style="vector-effect:non-scaling-stroke;fill:#e0e1e3;fill-opacity:1;stroke:#e0e1e3;stroke-width:0.93248;stroke-opacity:1;-inkscape-stroke:hairline"
       id="path146"
       sodipodi:nodetypes="cccccc" /><path
       d="m 505.28684,392.65375 -66.33398,50.27539 -16.65235,11.53906 89.28711,-40.85547 0.0324,-18.31103 z"
       style="vector-effect:non-scaling-stroke;fill:#e0e1e3;fill-opacity:1;stroke:#e0e1e3;stroke-width:0.93248;stroke-opacity:1;-inkscape-stroke:hairline"
       id="path144"
       sodipodi:nodetypes="cccccc" /><path
       d="m 511.67578,473.49219 v 11.1914 l 9.37696,-4.39257 2.2539,1.05468 z"
       style="vector-effect:non-scaling-stroke;fill:#e0e1e3;fill-opacity:1;stroke:#e0e1e3;stroke-width:0.767729;stroke-opacity:1;-inkscape-stroke:hairline"
       id="path157" /><path
       d="m 529.13769,486.21851 -3.80273,-2.23243 3.80273,2.56836 z"
       style="vector-effect:non-scaling-stroke;fill:#e0e1e3;fill-opacity:1;stroke:#e0e1e3;stroke-width:0.767729;stroke-opacity:1;-inkscape-stroke:hairline"
       id="path154" /><path
       d="m 513.66406,411.29297 1.77149,-0.82617 -1.77149,0.81054 z"
       style="vector-effect:non-scaling-stroke;fill:#e0e1e3;fill-opacity:1;stroke:#e0e1e3;stroke-width:0.767729;stroke-opacity:1;-inkscape-stroke:hairline"
       id="path155" /><path
       d="m 511.67578,473.5918 v 11.09179 l 9.32227,-4.36718 z"
       style="vector-effect:non-scaling-stroke;fill:#e0e1e3;fill-opacity:1;stroke:#e0e1e3;stroke-width:0.742851;stroke-opacity:1;-inkscape-stroke:hairline"
       id="path180" /><path
       d="m 530.59961,403.49527 -19.19226,9.98361 -0.0695,59.86878 0.0371,0.0273 0.0684,-0.041 0.23242,0.15821 v 0.0996 l 9.32227,6.72461 0.0547,-0.0254 2.25391,1.05468 7.71875,5.21289 0.0801,-83.05619 z"
       style="vector-effect:non-scaling-stroke;fill:#e0e1e3;fill-opacity:1;stroke:#e0e1e3;stroke-width:0.742851;stroke-opacity:1;-inkscape-stroke:hairline"
       id="path176"
       sodipodi:nodetypes="ccccccccccccc" /><path
       d="m 511.375,473.375 0.30078,0.2168 v -0.0996 l -0.23242,-0.15821 z"
       style="vector-effect:non-scaling-stroke;fill:#e0e1e3;fill-opacity:1;stroke:#e0e1e3;stroke-width:0.766327;stroke-opacity:1;-inkscape-stroke:hairline"
       id="path179" /><path
       d="m 530.93164,486.74414 -3.38672,-1.70508 -6.54687,-4.72265 -9.32227,4.36718 V 473.5918 l -0.30078,-0.2168 -76.35938,44.8418 v 1.97265 l 6.80665,3.99805 0.002,0.002 v 14.73633 l -0.28516,0.16797 -0.10156,0.0625 z"
       style="vector-effect:non-scaling-stroke;fill:#e0e1e3;fill-opacity:1;stroke:#e0e1e3;stroke-width:0.766327;stroke-opacity:1;-inkscape-stroke:hairline"
       id="path178" /><path
       d="m 531.02539,486.55859 -7.71875,-5.21289 -2.25391,-1.05468 -0.0547,0.0254 6.54687,4.72265 3.38672,1.70508 0.0937,-0.0547 z"
       style="vector-effect:non-scaling-stroke;fill:#e0e1e3;fill-opacity:1;stroke:#e0e1e3;stroke-width:0.766327;stroke-opacity:1;-inkscape-stroke:hairline"
       id="path177" /><path
       d="m 441.53906,539.09375 0.28516,-0.16797 v -14.73633 l -0.002,-0.002 -6.80664,-3.99805 v 0.48438 l 6.52148,3.83008 0.002,0.002 z"
       style="vector-effect:non-scaling-stroke;fill:#e0e1e3;fill-opacity:1;stroke:#e0e1e3;stroke-width:0.766327;stroke-opacity:1;-inkscape-stroke:hairline"
       id="path159" /><path
       d="m 441.53906,539.09375 v -14.58789 l -0.002,-0.002 -6.52148,-3.83008 v 22.25195 z"
       style="vector-effect:non-scaling-stroke;fill:#e0e1e3;fill-opacity:1;stroke:#e0e1e3;stroke-width:0.766327;stroke-opacity:1;-inkscape-stroke:hairline"
       id="path158" /><path
       d="m 435.02344,519.38086 -0.11133,0.0644 0.11133,0.0645 z"
       style="vector-effect:non-scaling-stroke;fill:#e0e1e3;fill-opacity:1;stroke:#e0e1e3;stroke-width:0.766327;stroke-opacity:1;-inkscape-stroke:hairline"
       id="path161" /><path
       d="m 435.02344,519.38086 v -0.15039 l -20.14453,11.83203 1.62695,0.95508 v -0.58789 l 18.51758,-10.875 v -1.04492 l -0.11133,-0.0645 z"
       style="vector-effect:non-scaling-stroke;fill:#e0e1e3;fill-opacity:1;stroke:#e0e1e3;stroke-width:0.766327;stroke-opacity:1;-inkscape-stroke:hairline"
       id="path162" /><path
       d="m 435.02344,520.55469 -18.51758,10.875 v 0.58789 l -1.62695,-0.95508 -0.0879,0.0508 20.23242,11.88086 z"
       style="vector-effect:non-scaling-stroke;fill:#e0e1e3;fill-opacity:1;stroke:#e0e1e3;stroke-width:0.766327;stroke-opacity:1;-inkscape-stroke:hairline"
       id="path163" /><path
       d="m 355.98828,479.91992 -4.51172,-2.65039 -12.95898,8.75195 17.46875,10.25977 h 0.002 z"
       style="vector-effect:non-scaling-stroke;fill:#e0e1e3;fill-opacity:1;stroke:#e0e1e3;stroke-width:0.766327;stroke-opacity:1;-inkscape-stroke:hairline"
       id="path74" /><path
       d="m 355.98828,474.22266 -4.51172,3.04687 4.51172,2.65039 z"
       style="vector-effect:non-scaling-stroke;fill:#e0e1e3;fill-opacity:1;stroke:#e0e1e3;stroke-width:0.766327;stroke-opacity:1;-inkscape-stroke:hairline"
       id="path73" /><path
       d="m 355.98828,474.22266 v 5.69726 16.36133 h -0.002 l 0.003,0.003 58.88999,34.77877 20.14453,-11.83203 v -0.89453 l -77.2113,-45.34623 z"
       style="vector-effect:non-scaling-stroke;fill:#e0e1e3;fill-opacity:1;stroke:#e0e1e3;stroke-width:0.766327;stroke-opacity:1;-inkscape-stroke:hairline"
       id="path72"
       sodipodi:nodetypes="cccccccccc" /><g
       id="g176"
       transform="matrix(1.0314074,0,0,1,-9.3607755,1.32115)"
       style="fill:#e0e1e3;fill-opacity:1;stroke:#e0e1e3;stroke-opacity:1"><path
         d="m 337.16797,484.71484 12.55078,-8.47656 -4.19141,-2.46094 -8.35937,4.90821 z"
         style="vector-effect:non-scaling-stroke;fill:#e0e1e3;fill-opacity:1;stroke:#e0e1e3;stroke-width:0.766327;stroke-opacity:1;-inkscape-stroke:hairline"
         id="path75" /><path
         d="m 355.98828,471.91992 -10.46094,-6.14258 -8.35937,4.90821 v 8 l 8.35937,-4.90821 4.19141,2.46094 6.26953,-4.23437 z"
         style="vector-effect:non-scaling-stroke;fill:#e0e1e3;fill-opacity:1;stroke:#e0e1e3;stroke-width:0.766327;stroke-opacity:1;-inkscape-stroke:hairline"
         id="path71" /><path
         d="m 337.16797,377.4668 v 93.21875 l 8.35937,-4.90821 10.46094,6.14258 v -83.29687 z"
         style="vector-effect:non-scaling-stroke;fill:#e0e1e3;fill-opacity:1;stroke:#e0e1e3;stroke-width:0.766327;stroke-opacity:1;-inkscape-stroke:hairline"
         id="path69" /></g><path
       d="m 436.28809,343.5459 -19.08985,-11.21094 -78.98633,46.38672 19.00196,11.26367 z"
       style="vector-effect:non-scaling-stroke;fill:#e0e1e3;fill-opacity:1;stroke:#e0e1e3;stroke-width:0.766327;stroke-opacity:1;-inkscape-stroke:hairline"
       id="path68" /><path
       d="m 454.19397,332.47961 -1.75177,-1.35387 -16.99298,4.28637 5.99805,2.08398 z"
       style="vector-effect:non-scaling-stroke;fill:#e0e1e3;fill-opacity:1;stroke:#e0e1e3;stroke-width:0.634689;stroke-opacity:1;-inkscape-stroke:hairline"
       id="path67"
       sodipodi:nodetypes="ccccc" /><path
       d="m 451.31482,330.22677 -20.89462,11.53094 98.89132,31.17491 -23.51953,-12.39258 z"
       style="vector-effect:non-scaling-stroke;fill:#e0e1e3;fill-opacity:1;stroke:#e0e1e3;stroke-width:0.634689;stroke-opacity:1;-inkscape-stroke:hairline"
       id="path66"
       sodipodi:nodetypes="ccccc" /><path
       d="m 436.59058,321.22387 -19.60036,11.22902 -2.04593,1.22039 18.77814,11.36507 -3.42215,-3.53125 7.05874,-1.1711 17.50011,-5.20298 0.68091,-1.88009 0.36729,-0.28721 z"
       style="vector-effect:non-scaling-stroke;fill:#e0e1e3;fill-opacity:1;stroke:#e0e1e3;stroke-width:0.766327;stroke-opacity:1;-inkscape-stroke:hairline"
       id="path65"
       sodipodi:nodetypes="cccccccccc" /><path
       d="m 435.19727,519.12891 -0.17383,0.10156 v 0.15039 l 0.30078,-0.17774 z"
       style="fill:#e0e1e3;fill-opacity:1;stroke:#e0e1e3;stroke-width:1.31898;stroke-opacity:1"
       id="path160" /><circle
       id="path170"
       style="fill:#e0e1e3;fill-opacity:1;stroke:#e0e1e3;stroke-opacity:1"
       cx="446.10254"
       cy="329.94611"
       r="0.018711112" /></g></g></svg>
